<svg width="14" height="14" viewBox="0 0 14 14" fill="none" xmlns="http://www.w3.org/2000/svg">
<path d="M6.99992 1.16675C4.54992 1.16675 2.33325 3.04508 2.33325 5.95008C2.33325 7.80508 3.76242 9.98675 6.61492 12.5009C6.83659 12.6934 7.16909 12.6934 7.39075 12.5009C10.2374 9.98675 11.6666 7.80508 11.6666 5.95008C11.6666 3.04508 9.44992 1.16675 6.99992 1.16675ZM6.99992 7.00008C6.35825 7.00008 5.83325 6.47508 5.83325 5.83342C5.83325 5.19175 6.35825 4.66675 6.99992 4.66675C7.64159 4.66675 8.16658 5.19175 8.16658 5.83342C8.16658 6.47508 7.64159 7.00008 6.99992 7.00008Z" fill="#BDBDBD"/>
</svg>
