<svg width="103" height="23" viewBox="0 0 103 23" fill="none" xmlns="http://www.w3.org/2000/svg">
<g filter="url(#filter0_d_133_58)">
<path d="M7.14872 11.7135H13.3021V14.312H4.27368V0.256592H7.14872V11.7135Z" fill="white"/>
<path d="M33.8335 8.49562C33.8335 9.43187 33.6808 10.2788 33.3755 11.0307C33.0701 11.7826 32.6524 12.4221 32.1195 12.9464C31.5865 13.4708 30.9585 13.8741 30.2354 14.1506C29.5123 14.4272 28.723 14.5655 27.8703 14.5655C27.0176 14.5655 26.2253 14.4272 25.4965 14.1506C24.7648 13.8741 24.1339 13.4736 23.6009 12.9464C23.068 12.4221 22.6532 11.7826 22.3564 11.0307C22.0597 10.2788 21.9099 9.43476 21.9099 8.49562V0.253662H24.7849V8.7088C24.7849 9.2331 24.8627 9.69691 25.0183 10.0945C25.1739 10.492 25.3899 10.8262 25.6665 11.0941C25.943 11.3649 26.2686 11.5665 26.6459 11.7019C27.0233 11.8373 27.4295 11.9036 27.8703 11.9036C28.311 11.9036 28.7172 11.8373 29.0946 11.7019C29.472 11.5665 29.7975 11.3649 30.0741 11.0941C30.3506 10.8233 30.5667 10.492 30.7223 10.0945C30.8778 9.69691 30.9556 9.23598 30.9556 8.7088V0.253662H33.8306V8.49562H33.8335Z" fill="white"/>
<path d="M50.4671 0C51.7318 0 52.8639 0.265032 53.8636 0.797979C54.8632 1.33093 55.7044 2.07993 56.3872 3.045L54.3418 4.72739C53.8578 4.07345 53.3018 3.56642 52.6709 3.20344C52.04 2.84046 51.291 2.65898 50.4239 2.65898C49.7412 2.65898 49.1247 2.77133 48.5716 2.99891C48.0184 3.22649 47.5431 3.54626 47.1456 3.95821C46.748 4.37016 46.4426 4.8599 46.2295 5.42742C46.0163 5.99493 45.9097 6.61431 45.9097 7.27977C45.9097 7.96252 46.0192 8.59054 46.241 9.16382C46.4599 9.73997 46.7768 10.2355 47.1888 10.6532C47.6007 11.0709 48.0905 11.3993 48.658 11.6327C49.2255 11.866 49.865 11.9841 50.5737 11.9841C51.412 11.9841 52.1409 11.8285 52.766 11.5145C53.3911 11.2034 53.901 10.7771 54.2986 10.2355V9.08603H50.4239V6.59414H57.1765V10.7483C56.8654 11.3014 56.4793 11.8141 56.0271 12.2808C55.5719 12.7504 55.0591 13.1508 54.4829 13.485C53.9068 13.8192 53.2817 14.0813 52.6075 14.2743C51.9334 14.4674 51.219 14.5624 50.4671 14.5624C49.4012 14.5624 48.4131 14.3781 47.497 14.0093C46.5809 13.6406 45.7858 13.1278 45.1117 12.4767C44.4376 11.8228 43.9075 11.0536 43.5244 10.1663C43.1413 9.27904 42.9482 8.31686 42.9482 7.27977C42.9482 6.24268 43.1413 5.2805 43.5244 4.39321C43.9075 3.50593 44.4376 2.73676 45.1117 2.08282C45.7858 1.42888 46.5809 0.918973 47.497 0.550231C48.4102 0.18437 49.4012 0 50.4671 0Z" fill="white"/>
<path d="M78.4283 14.3118H75.3401L74.5508 12.4796H68.8007L68.0114 14.3118H64.926L71.209 0H72.1453L78.4283 14.3118ZM69.8032 10.1145H73.531L71.6786 5.36404L69.8032 10.1145Z" fill="white"/>
<path d="M92.4635 0.256542C93.201 0.256542 93.8809 0.363131 94.4974 0.57631C95.1138 0.789489 95.6468 1.09485 96.0933 1.4924C96.5398 1.88995 96.8884 2.36816 97.1362 2.92992C97.3839 3.49167 97.5078 4.11104 97.5078 4.79379C97.5078 5.71565 97.2888 6.52227 96.8481 7.21078C96.4073 7.89929 95.8052 8.42936 95.0389 8.7981L99 14.3148H95.762L92.1236 9.34833H90.0379V14.3091H87.1628V0.253662H92.4635V0.256542ZM90.035 2.78876V6.81323H92.4405C93.1232 6.81323 93.6475 6.62886 94.0163 6.26012C94.385 5.89138 94.5694 5.40164 94.5694 4.79092C94.5694 4.19459 94.385 3.7135 94.0163 3.34187C93.6475 2.97313 93.1232 2.78876 92.4405 2.78876H90.035Z" fill="white"/>
</g>
<defs>
<filter id="filter0_d_133_58" x="0.273682" y="0" width="102.726" height="22.5654" filterUnits="userSpaceOnUse" color-interpolation-filters="sRGB">
<feFlood flood-opacity="0" result="BackgroundImageFix"/>
<feColorMatrix in="SourceAlpha" type="matrix" values="0 0 0 0 0 0 0 0 0 0 0 0 0 0 0 0 0 0 127 0" result="hardAlpha"/>
<feOffset dy="4"/>
<feGaussianBlur stdDeviation="2"/>
<feComposite in2="hardAlpha" operator="out"/>
<feColorMatrix type="matrix" values="0 0 0 0 0 0 0 0 0 0 0 0 0 0 0 0 0 0 0.25 0"/>
<feBlend mode="normal" in2="BackgroundImageFix" result="effect1_dropShadow_133_58"/>
<feBlend mode="normal" in="SourceGraphic" in2="effect1_dropShadow_133_58" result="shape"/>
</filter>
</defs>
</svg>
