<svg width="110" height="17" viewBox="0 0 110 17" fill="none" xmlns="http://www.w3.org/2000/svg">
<path d="M3.31445 13.6078H10.4083V16.6034H0V0.399872H3.31445V13.6078Z" fill="#1E3240"/>
<path d="M34.0778 9.89817C34.0778 10.9775 33.9017 11.9539 33.5497 12.8207C33.1977 13.6875 32.7161 14.4248 32.1017 15.0292C31.4873 15.6337 30.7633 16.0986 29.9297 16.4175C29.0961 16.7363 28.1862 16.8957 27.2031 16.8957C26.2201 16.8957 25.3068 16.7363 24.4665 16.4175C23.623 16.0986 22.8957 15.637 22.2813 15.0292C21.6669 14.4248 21.1886 13.6875 20.8466 12.8207C20.5045 11.9539 20.3318 10.9808 20.3318 9.89817V0.396545H23.6462V10.1439C23.6462 10.7484 23.7359 11.2831 23.9152 11.7414C24.0946 12.1997 24.3437 12.5849 24.6625 12.8938C24.9813 13.206 25.3566 13.4384 25.7916 13.5945C26.2267 13.7506 26.695 13.827 27.2031 13.827C27.7112 13.827 28.1795 13.7506 28.6146 13.5945C29.0496 13.4384 29.4249 13.206 29.7437 12.8938C30.0626 12.5816 30.3116 12.1997 30.491 11.7414C30.6703 11.2831 30.76 10.7517 30.76 10.1439V0.396545H34.0744V9.89817H34.0778Z" fill="#1E3240"/>
<path d="M53.2537 0.104309C54.7117 0.104309 56.0169 0.409847 57.1693 1.02425C58.3217 1.63865 59.2915 2.50213 60.0786 3.61469L57.7206 5.55421C57.1626 4.80033 56.5217 4.21581 55.7944 3.79735C55.067 3.3789 54.2036 3.16967 53.2039 3.16967C52.4168 3.16967 51.7061 3.29919 51.0685 3.56156C50.4308 3.82392 49.8828 4.19256 49.4245 4.66748C48.9662 5.14239 48.6142 5.70698 48.3684 6.36123C48.1226 7.01548 47.9998 7.72952 47.9998 8.49669C47.9998 9.28379 48.126 10.0078 48.3817 10.6687C48.6341 11.3329 48.9994 11.9041 49.4743 12.3857C49.9492 12.8672 50.5138 13.2458 51.1681 13.5149C51.8223 13.7839 52.5596 13.92 53.3766 13.92C54.343 13.92 55.1833 13.7407 55.9039 13.3787C56.6246 13.02 57.2125 12.5285 57.6708 11.9041V10.579H53.2039V7.70627H60.9885V12.4953C60.6299 13.1329 60.1848 13.7241 59.6634 14.2621C59.1387 14.8034 58.5475 15.2651 57.8833 15.6503C57.2191 16.0356 56.4984 16.3378 55.7213 16.5603C54.9442 16.7828 54.1205 16.8924 53.2537 16.8924C52.0249 16.8924 50.8858 16.6798 49.8297 16.2547C48.7736 15.8296 47.857 15.2385 47.0798 14.4879C46.3027 13.734 45.6916 12.8473 45.2499 11.8244C44.8082 10.8015 44.5857 9.69228 44.5857 8.49669C44.5857 7.3011 44.8082 6.19186 45.2499 5.16896C45.6916 4.14607 46.3027 3.25934 47.0798 2.50546C47.857 1.75157 48.7736 1.16373 49.8297 0.738636C50.8825 0.316858 52.0249 0.104309 53.2537 0.104309Z" fill="#1E3240"/>
<path d="M85.488 16.6035H81.9278L81.0179 14.4913H74.389L73.479 16.6035H69.9221L77.1654 0.104309H78.2448L85.488 16.6035ZM75.5447 11.7646H79.8422L77.7067 6.28817L75.5447 11.7646Z" fill="#1E3240"/>
<path d="M101.668 0.399866C102.519 0.399866 103.302 0.522745 104.013 0.768505C104.724 1.01427 105.338 1.3663 105.853 1.82461C106.368 2.28292 106.77 2.83422 107.055 3.48183C107.341 4.12944 107.484 4.84347 107.484 5.63057C107.484 6.69332 107.231 7.62323 106.723 8.41697C106.215 9.21071 105.521 9.82178 104.637 10.2469L109.204 16.6068H105.471L101.277 10.8812H98.8721V16.6001H95.5576V0.396545H101.668V0.399866ZM98.8687 3.3191V7.95866H101.642C102.429 7.95866 103.033 7.74611 103.458 7.32101C103.884 6.89591 104.096 6.33133 104.096 5.62725C104.096 4.93979 103.884 4.38517 103.458 3.95675C103.033 3.53165 102.429 3.3191 101.642 3.3191H98.8687Z" fill="#1E3240"/>
</svg>
